<svg width="300" height="226" viewBox="0 0 300 226" fill="none" xmlns="http://www.w3.org/2000/svg">
<path d="M147.499 121.756C147.499 121.947 147.442 122.134 147.336 122.293C147.23 122.452 147.079 122.576 146.902 122.649C146.726 122.723 146.531 122.742 146.344 122.704C146.157 122.667 145.984 122.575 145.849 122.44C145.714 122.304 145.622 122.132 145.585 121.945C145.548 121.757 145.567 121.563 145.64 121.386C145.713 121.209 145.837 121.058 145.996 120.952C146.155 120.846 146.341 120.789 146.532 120.789C146.789 120.789 147.034 120.891 147.216 121.072C147.397 121.253 147.499 121.499 147.499 121.756Z" stroke="#C0CCD8" stroke-linecap="round" stroke-linejoin="round"/>
<path d="M145.921 13.8237H78.073C77.0479 13.8237 76.2168 14.6556 76.2168 15.6819V55.2351C76.2168 56.2613 77.0479 57.0932 78.073 57.0932H145.921C146.946 57.0932 147.777 56.2613 147.777 55.2351V15.6819C147.777 14.6556 146.946 13.8237 145.921 13.8237Z" stroke="#C0CCD8" stroke-miterlimit="10"/>
<path d="M76.2168 21.6614H147.777" stroke="#C0CCD8" stroke-miterlimit="10"/>
<path d="M80.8364 18.9351C81.4687 18.9351 81.9814 18.422 81.9814 17.789C81.9814 17.156 81.4687 16.6428 80.8364 16.6428C80.204 16.6428 79.6914 17.156 79.6914 17.789C79.6914 18.422 80.204 18.9351 80.8364 18.9351Z" stroke="#C0CCD8" stroke-miterlimit="10"/>
<path d="M86.6822 17.7832C86.6822 18.0122 86.6144 18.236 86.4873 18.4264C86.3602 18.6168 86.1796 18.7652 85.9683 18.8528C85.7569 18.9404 85.5244 18.9633 85.3001 18.9187C85.0757 18.874 84.8696 18.7637 84.7079 18.6018C84.5461 18.4399 84.436 18.2336 84.3914 18.0091C84.3467 17.7845 84.3696 17.5517 84.4572 17.3402C84.5447 17.1286 84.6929 16.9478 84.8831 16.8206C85.0733 16.6934 85.2969 16.6255 85.5257 16.6255C85.8324 16.6255 86.1266 16.7475 86.3435 16.9646C86.5604 17.1817 86.6822 17.4762 86.6822 17.7832Z" stroke="#C0CCD8" stroke-miterlimit="10"/>
<path d="M91.3893 17.7832C91.3893 18.0122 91.3214 18.236 91.1943 18.4264C91.0673 18.6168 90.8866 18.7652 90.6753 18.8528C90.464 18.9404 90.2314 18.9633 90.0071 18.9187C89.7827 18.874 89.5767 18.7637 89.4149 18.6018C89.2532 18.4399 89.143 18.2336 89.0984 18.0091C89.0538 17.7845 89.0767 17.5517 89.1642 17.3402C89.2517 17.1286 89.4 16.9478 89.5902 16.8206C89.7804 16.6934 90.004 16.6255 90.2327 16.6255C90.5394 16.6255 90.8336 16.7475 91.0505 16.9646C91.2674 17.1817 91.3893 17.4762 91.3893 17.7832Z" stroke="#C0CCD8" stroke-miterlimit="10"/>
<path d="M55.5957 38.7551H38.6756C37.0404 38.7551 35.7148 40.082 35.7148 41.7189V58.6562C35.7148 60.293 37.0404 61.62 38.6756 61.62H55.5957C57.2309 61.62 58.5564 60.293 58.5564 58.6562V41.7189C58.5564 40.082 57.2309 38.7551 55.5957 38.7551Z" stroke="#C0CCD8" stroke-linejoin="round"/>
<path d="M47.134 56.7346C50.746 56.7346 53.6742 53.8035 53.6742 50.1877C53.6742 46.572 50.746 43.6409 47.134 43.6409C43.5219 43.6409 40.5938 46.572 40.5938 50.1877C40.5938 53.8035 43.5219 56.7346 47.134 56.7346Z" stroke="#C0CCD8" stroke-width="3" stroke-miterlimit="10"/>
<path d="M51.5513 45.5625L42.3105 54.8068" stroke="#C0CCD8" stroke-width="3" stroke-miterlimit="10"/>
<path d="M209.992 56.4162L205.256 51.5017H132.365C131.554 51.5017 130.751 51.3418 130.002 51.0311C129.253 50.7204 128.572 50.265 127.998 49.691C127.425 49.1169 126.97 48.4354 126.66 47.6853C126.349 46.9353 126.189 46.1314 126.189 45.3195V7.36969C126.189 5.73007 126.84 4.1576 127.998 2.99822C129.157 1.83883 130.727 1.1875 132.365 1.1875H205.58C207.218 1.1875 208.789 1.83883 209.947 2.99822C211.105 4.1576 211.756 5.73007 211.756 7.36969V55.7042C211.757 55.9092 211.696 56.1098 211.582 56.2799C211.468 56.4501 211.305 56.5821 211.115 56.6588C210.925 56.7354 210.717 56.7533 210.516 56.7101C210.316 56.6668 210.134 56.5644 209.992 56.4162Z" fill="white" stroke="#C0CCD8" stroke-linejoin="round"/>
<path d="M155.496 34.5351H152.356V40.0574H144.734V34.5351H133.377V28.8797L145.226 11.543H152.333V28.7813H155.496V34.5351ZM144.757 28.7813V25.4645C144.757 24.8451 144.757 24 144.827 22.9407C144.833 22.3833 144.869 21.8268 144.937 21.2735H144.723C144.295 22.2469 143.792 23.1856 143.219 24.081L140.062 28.7813H144.757Z" fill="#FD5D47"/>
<path d="M179.206 25.835C179.206 30.8827 178.361 34.5796 176.673 36.9259C174.984 39.2722 172.399 40.4454 168.918 40.4454C165.51 40.4454 162.945 39.2201 161.221 36.7696C159.498 34.3191 158.635 30.6743 158.631 25.835C158.631 20.7643 159.475 17.0461 161.164 14.6805C162.852 12.3149 165.437 11.1321 168.918 11.1321C172.307 11.1321 174.869 12.365 176.603 14.831C178.338 17.2969 179.206 20.9649 179.206 25.835ZM166.287 25.835C166.287 29.0651 166.49 31.2763 166.865 32.4861C167.241 33.6959 167.947 34.3037 168.895 34.3037C169.843 34.3037 170.532 33.6785 170.931 32.4282C171.33 31.1779 171.509 28.9551 171.509 25.835C171.509 22.715 171.306 20.4632 170.931 19.1955C170.555 17.9279 169.855 17.2969 168.907 17.2969C167.958 17.2969 167.282 17.8758 166.877 19.1261C166.472 20.3764 166.293 22.5876 166.293 25.835H166.287Z" fill="#FD5D47"/>
<path d="M204.545 34.5351H201.405V40.0574H193.806V34.5351H182.449V28.8797L194.298 11.543H201.405V28.7813H204.545V34.5351ZM193.806 28.7813V25.4645C193.806 24.8451 193.806 24 193.876 22.9407C193.882 22.3833 193.918 21.8268 193.986 21.2735H193.772C193.344 22.2469 192.841 23.1856 192.268 24.081L189.111 28.7813H193.806Z" fill="#FD5D47"/>
<path d="M295.617 105.329H278.697C277.062 105.329 275.736 106.656 275.736 108.293V125.23C275.736 126.867 277.062 128.194 278.697 128.194H295.617C297.252 128.194 298.578 126.867 298.578 125.23V108.293C298.578 106.656 297.252 105.329 295.617 105.329Z" stroke="#C0CCD8" stroke-linejoin="round"/>
<path d="M294.518 123.181C294.43 123.211 294.339 123.227 294.246 123.227H280.067C279.921 123.227 279.778 123.188 279.652 123.114C279.526 123.041 279.421 122.936 279.349 122.809C279.276 122.682 279.238 122.539 279.238 122.393C279.238 122.247 279.277 122.104 279.35 121.977L286.434 109.688C286.505 109.561 286.61 109.456 286.736 109.382C286.862 109.309 287.005 109.271 287.151 109.271C287.296 109.272 287.439 109.309 287.566 109.382C287.693 109.454 287.799 109.557 287.874 109.682L294.963 121.971C295.024 122.077 295.062 122.196 295.072 122.318C295.082 122.44 295.066 122.563 295.023 122.678C294.981 122.793 294.913 122.897 294.826 122.983C294.739 123.069 294.633 123.135 294.518 123.175V123.181ZM280.46 122.174H293.853L287.151 110.562L280.46 122.174Z" fill="#C0CCD8"/>
<path d="M287.156 119.731C287.026 119.733 286.901 119.683 286.807 119.594C286.713 119.504 286.658 119.381 286.653 119.251L286.364 114.417C286.359 114.311 286.376 114.204 286.414 114.105C286.451 114.005 286.508 113.913 286.581 113.836C286.655 113.759 286.743 113.697 286.841 113.655C286.939 113.612 287.044 113.59 287.15 113.59C287.257 113.59 287.362 113.611 287.461 113.653C287.559 113.694 287.647 113.755 287.721 113.832C287.795 113.909 287.853 114 287.891 114.099C287.929 114.199 287.947 114.305 287.943 114.412L287.654 119.251C287.649 119.38 287.595 119.502 287.502 119.592C287.409 119.681 287.285 119.731 287.156 119.731Z" fill="#C0CCD8"/>
<path d="M287.666 120.901C287.665 121.001 287.634 121.099 287.578 121.182C287.521 121.265 287.441 121.329 287.348 121.367C287.255 121.405 287.153 121.414 287.055 121.394C286.956 121.373 286.866 121.325 286.795 121.253C286.725 121.182 286.677 121.091 286.658 120.992C286.639 120.894 286.649 120.791 286.688 120.699C286.726 120.606 286.792 120.527 286.875 120.471C286.959 120.415 287.057 120.386 287.157 120.385C287.225 120.385 287.291 120.399 287.353 120.425C287.416 120.451 287.472 120.489 287.519 120.537C287.566 120.585 287.604 120.641 287.629 120.704C287.654 120.766 287.667 120.833 287.666 120.901Z" fill="#C0CCD8"/>
<path d="M204.546 156.107C204.547 156.362 204.472 156.612 204.331 156.825C204.19 157.038 203.989 157.205 203.754 157.303C203.518 157.402 203.259 157.428 203.008 157.379C202.758 157.33 202.527 157.208 202.347 157.027C202.166 156.847 202.042 156.617 201.992 156.366C201.942 156.116 201.967 155.856 202.064 155.62C202.162 155.384 202.327 155.182 202.539 155.039C202.751 154.897 203.001 154.822 203.256 154.822C203.597 154.822 203.924 154.957 204.166 155.198C204.408 155.438 204.544 155.765 204.546 156.107Z" stroke="#C0CCD8" stroke-linecap="round" stroke-linejoin="round"/>
<path d="M293.089 50.1818C293.09 50.4373 293.015 50.6875 292.874 50.9005C292.733 51.1136 292.532 51.2799 292.297 51.3785C292.061 51.4771 291.802 51.5035 291.551 51.4543C291.301 51.4052 291.07 51.2827 290.89 51.1024C290.709 50.9221 290.585 50.6921 290.535 50.4415C290.485 50.191 290.51 49.9311 290.607 49.6949C290.705 49.4587 290.87 49.2568 291.082 49.1147C291.294 48.9726 291.544 48.8967 291.799 48.8967C292.14 48.8967 292.467 49.0319 292.709 49.2728C292.951 49.5136 293.087 49.8404 293.089 50.1818Z" stroke="#C0CCD8" stroke-linecap="round" stroke-linejoin="round"/>
<path d="M223.536 10.2868C223.537 10.5423 223.463 10.7925 223.322 11.0055C223.181 11.2185 222.98 11.3849 222.744 11.4835C222.509 11.5821 222.249 11.6085 221.999 11.5593C221.748 11.5102 221.518 11.3877 221.337 11.2074C221.156 11.0271 221.032 10.7971 220.982 10.5465C220.932 10.296 220.957 10.0361 221.055 9.79992C221.152 9.56371 221.317 9.36176 221.53 9.21966C221.742 9.07757 221.991 9.00171 222.247 9.00171C222.588 9.00171 222.915 9.13691 223.156 9.37774C223.398 9.61857 223.535 9.94542 223.536 10.2868Z" stroke="#C0CCD8" stroke-linecap="round" stroke-linejoin="round"/>
<path d="M290.518 92.3745V96.3686" stroke="#C0CCD8" stroke-linecap="round" stroke-linejoin="round"/>
<path d="M292.512 94.3716H288.521" stroke="#C0CCD8" stroke-linecap="round" stroke-linejoin="round"/>
<path d="M186.209 169.322V173.316" stroke="#C0CCD8" stroke-linecap="round" stroke-linejoin="round"/>
<path d="M188.203 171.319H184.207" stroke="#C0CCD8" stroke-linecap="round" stroke-linejoin="round"/>
<path d="M101.816 2.92383V6.91794" stroke="#C0CCD8" stroke-linecap="round" stroke-linejoin="round"/>
<path d="M103.81 4.92114H99.8203" stroke="#C0CCD8" stroke-linecap="round" stroke-linejoin="round"/>
<path d="M12.4902 41.5337V45.5278" stroke="#C0CCD8" stroke-linecap="round" stroke-linejoin="round"/>
<path d="M14.4861 43.5305H10.4961" stroke="#C0CCD8" stroke-linecap="round" stroke-linejoin="round"/>
<path d="M4.14648 124.231V131.194" stroke="#C0CCD8" stroke-linecap="round" stroke-linejoin="round"/>
<path d="M7.62582 127.712H0.669922" stroke="#C0CCD8" stroke-linecap="round" stroke-linejoin="round"/>
<path d="M232.186 25.5396V29.5337" stroke="#C0CCD8" stroke-linecap="round" stroke-linejoin="round"/>
<path d="M234.181 27.5369H230.191" stroke="#C0CCD8" stroke-linecap="round" stroke-linejoin="round"/>
<path d="M36.0061 114.119H17.1992C17.042 114.118 16.8914 113.984 16.7802 113.748C16.669 113.512 16.6062 113.192 16.6055 112.857C16.6055 112.522 16.6679 112.201 16.7792 111.963C16.8905 111.725 17.0415 111.591 17.1992 111.59H36.0061C36.1643 111.59 36.316 111.723 36.4278 111.961C36.5397 112.199 36.6025 112.521 36.6025 112.857C36.6018 113.193 36.5387 113.513 36.4269 113.75C36.3151 113.986 36.1638 114.119 36.0061 114.119Z" stroke="#C0CCD8" stroke-miterlimit="10"/>
<path d="M270.786 78.835H230.886C230.551 78.835 230.229 78.7023 229.992 78.4658C229.755 78.2293 229.621 77.9083 229.619 77.5731C229.619 77.4066 229.652 77.2418 229.716 77.088C229.779 76.9342 229.872 76.7944 229.99 76.6767C230.108 76.559 230.247 76.4656 230.401 76.4019C230.555 76.3382 230.719 76.3054 230.886 76.3054H270.786C271.121 76.307 271.442 76.4412 271.678 76.6788C271.914 76.9163 272.047 77.2379 272.047 77.5731C272.045 77.9073 271.912 78.2274 271.676 78.4637C271.44 78.7001 271.12 78.8335 270.786 78.835Z" stroke="#C0CCD8" stroke-miterlimit="10"/>
<path d="M276.626 87.3327H261.898C261.731 87.3327 261.57 87.2663 261.452 87.1479C261.334 87.0296 261.268 86.8691 261.268 86.7018C261.268 86.5344 261.334 86.374 261.452 86.2556C261.57 86.1373 261.731 86.0708 261.898 86.0708H276.655C276.739 86.0701 276.821 86.0858 276.898 86.1172C276.975 86.1485 277.046 86.1949 277.105 86.2536C277.164 86.3122 277.211 86.382 277.243 86.459C277.275 86.5359 277.291 86.6184 277.291 86.7018C277.292 86.7876 277.274 86.8726 277.24 86.9515C277.207 87.0304 277.157 87.1016 277.095 87.1607C277.032 87.2197 276.959 87.2655 276.878 87.295C276.798 87.3246 276.712 87.3375 276.626 87.3327Z" fill="#C0CCD8"/>
<path d="M237.569 57.2147H222.806C222.723 57.2147 222.64 57.1982 222.564 57.1661C222.487 57.1341 222.417 57.0871 222.358 57.0279C222.3 56.9687 222.253 56.8984 222.222 56.8212C222.191 56.744 222.175 56.6613 222.176 56.578C222.176 56.4106 222.242 56.2502 222.36 56.1318C222.479 56.0135 222.639 55.947 222.806 55.947H237.569C237.736 55.947 237.897 56.0135 238.015 56.1318C238.133 56.2502 238.2 56.4106 238.2 56.578C238.2 56.6613 238.185 56.744 238.153 56.8212C238.122 56.8984 238.076 56.9687 238.017 57.0279C237.958 57.0871 237.889 57.1341 237.812 57.1661C237.735 57.1982 237.653 57.2147 237.569 57.2147Z" fill="#C0CCD8"/>
<path d="M20.8419 99.5812H9.54831C9.46504 99.5812 9.3826 99.5647 9.30575 99.5326C9.2289 99.5005 9.15915 99.4535 9.10055 99.3943C9.04194 99.3351 8.99564 99.2649 8.9643 99.1877C8.93297 99.1104 8.91723 99.0278 8.918 98.9444C8.918 98.7771 8.9844 98.6166 9.1026 98.4983C9.22081 98.38 9.38114 98.3135 9.54831 98.3135H20.8419C21.0091 98.3135 21.1694 98.38 21.2876 98.4983C21.4058 98.6166 21.4722 98.7771 21.4722 98.9444C21.473 99.0278 21.4572 99.1104 21.4259 99.1877C21.3946 99.2649 21.3482 99.3351 21.2896 99.3943C21.231 99.4535 21.1613 99.5005 21.0844 99.5326C21.0076 99.5647 20.9251 99.5812 20.8419 99.5812Z" fill="#C0CCD8"/>
<path d="M248.741 43.7969H260.966C262.148 43.7969 263.105 42.838 263.105 41.6551V29.4181C263.105 28.2352 262.148 27.2763 260.966 27.2763H248.741C247.56 27.2763 246.602 28.2352 246.602 29.4181V41.6551C246.602 42.838 247.56 43.7969 248.741 43.7969Z" stroke="#C0CCD8" stroke-linejoin="round"/>
<path d="M257.191 34.8362L256.908 36.2544H258.481V37.5105H256.694L256.225 39.9938H254.884L255.358 37.5105H253.623L253.155 39.9938H251.842L252.293 37.5105H250.842V36.2544H252.536L252.819 34.8362H251.281V33.557H253.016L253.49 31.0679H254.826L254.358 33.557H256.092L256.572 31.0679H257.885L257.405 33.557H258.874V34.8362H257.191ZM253.831 36.2544H255.566L255.855 34.8362H254.121L253.831 36.2544Z" fill="#C0CCD8"/>
<path d="M115.886 158.08L104.292 81.9666H52.0742L64.5937 162.619C64.9848 165.241 66.3149 167.632 68.3363 169.345C70.3576 171.059 72.9324 171.978 75.5808 171.932H163.414L164.056 164.546H123.508C121.669 164.581 119.88 163.944 118.477 162.754C117.074 161.563 116.153 159.902 115.886 158.08Z" fill="#475577"/>
<path d="M66.4436 158.08L55.3004 84.7798C55.1837 83.9859 54.7814 83.262 54.1692 82.744C53.5569 82.226 52.7768 81.9495 51.9754 81.9666H51.8771C51.3089 81.9738 50.7486 82.1008 50.2326 82.3391C49.7166 82.5775 49.2566 82.9219 48.8824 83.35C48.5082 83.7781 48.2282 84.2802 48.0607 84.8238C47.8932 85.3673 47.8419 85.9401 47.9101 86.5048L59.7242 162.619C60.1158 165.246 61.4501 167.641 63.4776 169.355C65.505 171.069 68.0868 171.985 70.7402 171.932H127.289L127.937 164.546H74.0884C72.2453 164.588 70.4506 163.954 69.0424 162.763C67.6343 161.572 66.71 159.906 66.4436 158.08Z" fill="#717A91"/>
<path d="M101.816 171.938L101.816 223.879" stroke="#544943" stroke-width="1.5" stroke-miterlimit="10"/>
<path d="M142.625 90.1344L155.856 70.3433L159.961 71.1942C156.827 81.7641 154.757 85.9434 154.757 85.9434" fill="#FFCBBB"/>
<path d="M157.849 74.4763L159.96 71.1942C159.96 71.1942 163.887 70.2911 165.309 69.5618C166.584 68.8987 167.571 67.7907 168.085 66.4475C168.391 65.614 168.258 63.1539 167.9 63.1133C167.056 63.0207 165.373 66.1697 164.586 66.3607C163.8 66.5517 161.238 66.3607 159.833 66.5344C159.112 66.6596 158.431 66.9541 157.846 67.3939C157.261 67.8336 156.789 68.406 156.467 69.064L154.305 72.9944" fill="#FFCBBB"/>
<path d="M151.275 76.1377L153.6 72.7688L159.608 75.4663L157.7 80.5891" fill="#E6E8EF"/>
<path d="M102.984 69.0987C102.984 69.0987 112.786 64.5836 121.42 72.2708C130.053 79.958 135.876 87.1011 139.057 89.4107L152.062 74.4357L159.325 77.851C157.411 88.6929 152.033 105.989 138.883 107.772C124.652 109.694 103.782 92.1429 103.782 92.1429" fill="#B9B5B2"/>
<path d="M134.842 94.3715L139.063 89.3933" stroke="#846A6A" stroke-miterlimit="10"/>
<path d="M117.707 127.042L132.401 134.758V134.909C132.401 134.909 162.384 132.894 166.918 143.592C174.001 160.39 175.227 214.971 175.227 214.971H153.282C153.282 214.971 145.117 169.131 142.324 166.347C139.531 163.562 128.017 163.753 106.841 163.753C83.0571 163.753 94.6687 133.074 103.522 130.423" fill="#3677CB"/>
<path d="M154.802 214.97C154.802 214.97 148.279 167.666 143.486 164.199C137.633 159.962 109.998 162.729 109.998 162.729" stroke="#75A4E1" stroke-miterlimit="10"/>
<path d="M91.7886 133.797C91.7886 133.797 130.336 134.417 135.373 146.11C141.577 160.483 131.354 214.994 131.354 214.994H108.125V166.254C108.132 165.797 107.96 165.356 107.645 165.025C107.33 164.695 106.898 164.502 106.442 164.488C103.227 164.575 96.0331 164.575 86.9311 164.575C63.1469 164.575 74.7586 127.528 83.6119 124.883" fill="#3677CB"/>
<path d="M91.7891 133.798C91.7891 133.798 130.336 134.417 135.373 146.11C137.056 150.006 137.929 156.639 137.478 164.546" stroke="#75A4E1" stroke-miterlimit="10"/>
<path d="M111.362 214.97C111.362 214.97 111.599 166.046 110.477 163.452C108.916 159.823 103.59 161.606 91.2326 161.606C67.4484 161.606 77.1402 127.523 85.9935 124.883" stroke="#75A4E1" stroke-miterlimit="10"/>
<path d="M76.9844 139.754C76.9844 139.754 89.1916 140.049 91.0421 138.197C92.8925 136.345 91.0421 127.951 91.0421 127.951" stroke="#75A4E1" stroke-miterlimit="10"/>
<path d="M76.6836 141.392C76.6836 141.392 90.6256 141.693 92.7363 139.835C94.847 137.977 92.7363 129.572 92.7363 129.572" stroke="#75A4E1" stroke-miterlimit="10" stroke-dasharray="3 2"/>
<path d="M74.3307 82.8699C74.3307 82.8699 71.4047 134.909 75.8342 134.909C80.2638 134.909 129.515 134.759 132.4 134.759C135.286 134.759 128.532 90.2561 118.805 80.8555C118.805 80.8555 104.378 65.1859 98.0166 66.6851C91.6557 68.1843 74.3307 82.8699 74.3307 82.8699Z" fill="#B9B5B2"/>
<path d="M129.278 106.539L123.16 81.4458" stroke="#846A6A" stroke-miterlimit="10"/>
<path d="M49.4185 92.2933L36.182 72.5022L32.082 73.3531C35.2162 83.9172 37.2864 88.1024 37.2864 88.1024" fill="#FFCBBB"/>
<path d="M34.1931 76.6238L32.0825 73.3475C32.0825 73.3475 28.156 72.4445 26.7277 71.7151C25.4543 71.0503 24.4672 69.9429 23.952 68.6009C23.6455 67.7673 23.7785 65.3072 24.1371 65.2667C24.9813 65.174 26.6641 68.323 27.4505 68.514C28.237 68.7051 30.7987 68.514 32.2039 68.6877C32.9247 68.8129 33.6056 69.1075 34.1907 69.5472C34.7757 69.9869 35.2482 70.5593 35.5694 71.2173L37.7322 75.1477" fill="#FFCBBB"/>
<path d="M40.7684 78.2967L38.4438 74.9277L32.4355 77.6252L34.3438 82.7481" fill="#E6E8EF"/>
<path d="M92.5285 69.3765C92.5285 69.3765 82.8425 62.4881 72.8674 70.951C63.5457 78.8408 57.3351 94.7652 55.2534 94.7652C53.8019 94.7652 44.8445 83.3212 39.484 76.3112L33.123 79.7207C37.1362 91.9867 45.8912 112.854 58.9832 112.854C69.2532 112.854 90.3485 88.7682 90.3485 88.7682" fill="#B9B5B2"/>
<path d="M73.4863 105.15L89.0996 92.1196" stroke="#846A6A" stroke-miterlimit="10"/>
<path d="M93.4668 70.6096L102.771 80.5891L103.991 69.0525" fill="#E6E8EF"/>
<path d="M93.4668 70.6096L102.771 80.5891L103.991 69.0525" stroke="#846A6A" stroke-linejoin="round"/>
<path d="M100.936 60.5317L103.556 66.274C103.556 66.274 104.608 69.5677 100.242 71.0553C98.9313 71.5484 97.5061 71.6523 96.1378 71.3545C94.7694 71.0568 93.516 70.37 92.528 69.3766L91.8398 60.3696" fill="#FFCBBB"/>
<path d="M92.2805 66.0945C92.2805 66.0945 95.7212 70.4185 100.243 71.0553L96.9586 75.935C94.2986 74.4358 91.043 68.6125 91.043 68.6125L92.2805 66.0945Z" fill="white"/>
<path d="M103.278 65.4866C102.804 67.5895 101.752 69.5181 100.242 71.0552L103.984 73.8858C104.845 71.7672 104.747 68.4677 104.747 68.4677L103.278 65.4866Z" fill="white"/>
<path d="M104.817 51.2583C104.817 51.2583 107.286 60.7283 103.574 63.1248C99.8611 65.5213 93.4134 61.8745 93.0375 60.6878C92.6616 59.5012 90.9846 49.3886 93.4018 48.6245C97.7041 47.2815 103.55 47.2178 104.817 51.2583Z" fill="#FFCBBB"/>
<path d="M104.735 54.3321C104.758 54.4259 104.752 54.5244 104.719 54.615C104.686 54.7057 104.626 54.7844 104.548 54.8411C104.47 54.8978 104.377 54.93 104.281 54.9335C104.184 54.937 104.089 54.9117 104.007 54.8608C103.925 54.81 103.86 54.7358 103.82 54.6478C103.781 54.5598 103.768 54.462 103.784 54.3667C103.8 54.2715 103.844 54.1832 103.91 54.1132C103.977 54.0431 104.063 53.9943 104.157 53.9732C104.218 53.9586 104.282 53.9563 104.344 53.9664C104.407 53.9766 104.467 53.999 104.52 54.0323C104.574 54.0657 104.621 54.1093 104.657 54.1608C104.694 54.2122 104.721 54.2704 104.735 54.3321Z" fill="#173789"/>
<path d="M103.91 51.5074C104.072 51.5074 104.8 51.6058 104.644 51.9647C104.575 52.1268 104.32 52.121 104.182 52.1152C104.037 52.0834 103.887 52.0834 103.742 52.1152C103.783 52.1586 103.814 52.2098 103.835 52.2657C103.881 52.3699 103.522 52.3815 103.482 52.3815C103.061 52.3208 102.633 52.4001 102.262 52.6072C102.376 52.2672 102.6 51.9747 102.898 51.7756C103.196 51.5766 103.552 51.4823 103.91 51.5074Z" fill="#173789"/>
<path d="M98.7857 55.6404C98.7905 55.7366 98.8237 55.8292 98.8811 55.9066C98.9386 55.9839 99.0177 56.0424 99.1084 56.0746C99.1991 56.1068 99.2974 56.1114 99.3906 56.0876C99.4839 56.0638 99.5681 56.0129 99.6324 55.9412C99.6967 55.8695 99.7382 55.7803 99.7518 55.6849C99.7654 55.5895 99.7503 55.4922 99.7085 55.4054C99.6668 55.3186 99.6002 55.2462 99.5172 55.1973C99.4343 55.1484 99.3387 55.1253 99.2426 55.131C99.1147 55.1384 98.995 55.1962 98.9094 55.2915C98.8239 55.3869 98.7794 55.5123 98.7857 55.6404Z" fill="#173789"/>
<path d="M97.3572 53.7301C97.0102 53.9154 96.7211 54.1701 96.7789 54.4595C96.8367 54.7489 97.068 54.6331 97.2126 54.5174C97.4485 54.3304 97.7172 54.1891 98.0048 54.1006C97.9406 54.1527 97.8894 54.219 97.8553 54.2944C97.8212 54.3698 97.805 54.452 97.8082 54.5347C98.2593 54.4777 98.6791 54.2731 99.0022 53.9529C99.3253 53.6326 99.5337 53.2144 99.5951 52.7634C99.3886 52.944 99.1615 53.0995 98.9185 53.2265C98.427 53.4696 97.866 53.4696 97.3572 53.7301Z" fill="#173789"/>
<path d="M102.331 54.8936C102.331 54.8936 103.649 58.222 103.181 58.5114C102.712 58.8008 101.053 58.7545 101.053 58.7545" stroke="#EF977F" stroke-miterlimit="10"/>
<path d="M102.383 63.675C101.202 64.0783 99.9393 64.1836 98.7077 63.9817C97.4761 63.7797 96.3132 63.2767 95.3223 62.5173" stroke="#EF977F" stroke-miterlimit="10"/>
<path d="M100.242 61.4518C100.242 61.4518 100.578 59.9873 102.983 59.9873" stroke="#EF977F" stroke-miterlimit="10"/>
<path d="M106.921 46.1761C106.927 45.7208 106.78 45.2766 106.505 44.9142C106.307 44.7469 106.078 44.6208 105.831 44.5433C105.583 44.4657 105.323 44.4383 105.065 44.4627C103.236 44.4495 101.45 45.0191 99.9649 46.0893L101.173 45.0357C101.497 44.7579 102.209 44.3179 101.867 43.797C101.526 43.276 100.711 43.6002 100.26 43.5944C98.1896 43.5944 96.2119 44.3122 94.2863 45.0415C93.335 45.3726 92.4188 45.7973 91.5511 46.3092C90.6791 46.8262 89.9791 47.5894 89.5387 48.5031C89.2139 49.3273 89.0681 50.2113 89.1108 51.0964C89.1621 52.6833 89.3322 54.2642 89.6197 55.8256C89.8914 57.5622 90.302 60.9022 92.5977 61.1106C93.0373 61.2007 93.4945 61.1309 93.8873 60.9138C94.0503 60.7671 94.182 60.5889 94.2744 60.3899C94.3668 60.191 94.4181 59.9754 94.4251 59.7561C94.5082 59.0418 94.4631 58.3185 94.2921 57.6201C94.72 57.8516 95.1248 58.2452 95.6105 58.17C95.6903 58.1629 95.7669 58.1351 95.8328 58.0895C95.8987 58.0438 95.9516 57.9818 95.9864 57.9095C96.0096 57.8105 96.0096 57.7075 95.9864 57.6085C95.8071 55.9703 95.7146 54.3437 95.6047 52.6998C97.9525 52.202 100.314 51.7736 102.689 51.4147C103.741 51.2584 104.857 51.0848 105.672 50.4017C106.835 49.4177 107.037 47.6811 106.921 46.1761Z" fill="#173789"/>
<path d="M94.7783 58.2395C94.3851 57.2786 93.7085 56.1151 92.6387 56.7692C92.2644 57.0754 92.0054 57.5 91.9043 57.9732C91.4186 59.565 92.5577 62.0252 94.1191 61.7936C94.8766 61.6779 95.2756 60.7748 95.611 60.0571" fill="#FFCBBB"/>
<path d="M31.377 224.568L49.9451 135.43" stroke="#544943" stroke-width="1.5" stroke-miterlimit="10"/>
<path d="M68.5193 224.568L49.9453 135.43" stroke="#544943" stroke-width="1.5" stroke-miterlimit="10"/>
<path d="M218.951 224.568L237.525 135.43" stroke="#544943" stroke-width="1.5" stroke-miterlimit="10"/>
<path d="M256.092 224.568L237.523 135.43" stroke="#544943" stroke-width="1.5" stroke-miterlimit="10"/>
<path d="M253.814 130.093H31.9785V135.424H253.814V130.093Z" fill="#E7EAF2"/>
<path d="M243.116 119.928H164.749C164.421 119.928 164.096 119.856 163.798 119.717C163.5 119.578 163.237 119.375 163.025 119.123C162.814 118.871 162.661 118.575 162.576 118.257C162.491 117.939 162.477 117.607 162.535 117.283L171.544 66.5693C171.681 65.7909 172.088 65.0858 172.693 64.5777C173.298 64.0696 174.062 63.791 174.852 63.7908H253.224C253.553 63.7908 253.878 63.8629 254.176 64.002C254.474 64.1412 254.737 64.344 254.948 64.5962C255.16 64.8483 255.313 65.1438 255.398 65.4617C255.482 65.7796 255.497 66.1122 255.439 66.4361L246.43 117.144C246.294 117.924 245.886 118.632 245.28 119.141C244.674 119.65 243.908 119.929 243.116 119.928Z" fill="#475577"/>
<path d="M244.944 119.928H166.548C166.22 119.928 165.895 119.856 165.597 119.717C165.299 119.578 165.035 119.375 164.824 119.123C164.613 118.871 164.46 118.575 164.375 118.257C164.29 117.94 164.276 117.607 164.333 117.283L173.343 66.5693C173.48 65.7909 173.887 65.0858 174.492 64.5777C175.097 64.0696 175.861 63.791 176.651 63.7908H255.046C255.376 63.7891 255.702 63.86 256.001 63.9984C256.301 64.1368 256.566 64.3394 256.778 64.5917C256.991 64.8441 257.145 65.1402 257.23 65.4589C257.316 65.7776 257.33 66.1112 257.273 66.4362L248.252 117.144C248.116 117.923 247.709 118.63 247.104 119.139C246.499 119.648 245.734 119.928 244.944 119.928Z" fill="#C0CCD8"/>
<path opacity="0.45" d="M230.516 119.928H185.237C185.047 119.928 184.86 119.886 184.688 119.805C184.517 119.725 184.365 119.608 184.243 119.462C184.121 119.316 184.033 119.146 183.984 118.962C183.935 118.779 183.926 118.587 183.959 118.4L189.164 89.11C189.245 88.6608 189.481 88.2543 189.831 87.9613C190.18 87.6683 190.622 87.5074 191.078 87.5066H236.356C236.546 87.5071 236.733 87.5491 236.905 87.6297C237.076 87.7102 237.229 87.8274 237.35 87.973C237.472 88.1186 237.56 88.289 237.609 88.4725C237.658 88.6559 237.667 88.8478 237.634 89.0348L232.406 118.302C232.331 118.751 232.1 119.16 231.755 119.457C231.409 119.754 230.971 119.921 230.516 119.928Z" fill="#8E9DB2"/>
<path d="M231.603 119.928H186.324C186.134 119.928 185.946 119.887 185.774 119.807C185.602 119.727 185.449 119.609 185.327 119.464C185.206 119.318 185.117 119.147 185.068 118.963C185.02 118.779 185.012 118.587 185.046 118.4L190.251 89.1095C190.33 88.6603 190.564 88.2533 190.913 87.96C191.262 87.6667 191.703 87.506 192.159 87.5061H237.437C237.627 87.5056 237.815 87.5469 237.987 87.6272C238.16 87.7074 238.312 87.8246 238.434 87.9704C238.556 88.1163 238.644 88.2872 238.693 88.471C238.742 88.6549 238.749 88.8472 238.715 89.0343L233.511 118.324C233.432 118.774 233.197 119.181 232.848 119.474C232.499 119.767 232.058 119.928 231.603 119.928Z" fill="#C6D2E0"/>
<path d="M221.569 102.701H203.191V119.928H221.569V102.701Z" fill="#8E9DB2"/>
<path d="M220.511 102.701H203.191V107.651L207.916 127.297H226.305L220.511 102.701ZM216.064 122.053C214.005 122.053 211.831 119.65 211.2 116.687C210.57 113.723 211.738 111.315 213.797 111.315C215.855 111.315 218.036 113.717 218.66 116.687C219.285 119.656 218.122 122.053 216.064 122.053Z" fill="#475577"/>
<path d="M193.084 127.297H234.245V130.093H190.297C190.297 129.352 190.59 128.642 191.113 128.118C191.635 127.594 192.344 127.298 193.084 127.297Z" fill="#475577"/>
<path d="M234.222 127.297H201.312V130.093H234.222V127.297Z" fill="#C0CCD8"/>
<path d="M221.575 102.701H203.191L208.974 127.297H227.363L221.575 102.701ZM217.064 122.053C215.005 122.053 212.825 119.65 212.201 116.687C211.576 113.723 212.733 111.315 214.791 111.315C216.85 111.315 219.03 113.717 219.655 116.687C220.279 119.656 219.105 122.053 217.064 122.053Z" fill="#C0CCD8"/>
<g opacity="0.65">
<path d="M178.644 68.7861L177.551 74.922H178.644L179.731 68.7861H178.644Z" fill="#8E9DB2"/>
<path d="M181.796 68.7861L180.703 74.922H181.796L182.883 68.7861H181.796Z" fill="#8E9DB2"/>
<path d="M184.946 68.7861L183.854 74.922H184.946L186.034 68.7861H184.946Z" fill="#8E9DB2"/>
<path d="M188.093 68.7861L187.006 74.922H188.093L189.186 68.7861H188.093Z" fill="#8E9DB2"/>
<path d="M191.245 68.7861L190.158 74.922H191.245L192.338 68.7861H191.245Z" fill="#8E9DB2"/>
</g>
<g opacity="0.65">
<path d="M220.003 68.7864L218.916 74.9223H220.003L221.096 68.7864H220.003Z" fill="#8E9DB2"/>
<path d="M223.318 68.7864L222.23 74.9223H223.318L224.411 68.7864H223.318Z" fill="#8E9DB2"/>
<path d="M226.63 68.7864L225.543 74.9223H226.63L227.717 68.7864H226.63Z" fill="#8E9DB2"/>
<path d="M229.943 68.7864L228.85 74.9223H229.943L231.03 68.7864H229.943Z" fill="#8E9DB2"/>
<path d="M233.251 68.7864L232.164 74.9223H233.251L234.344 68.7864H233.251Z" fill="#8E9DB2"/>
<path d="M236.564 68.7864L235.477 74.9223H236.564L237.651 68.7864H236.564Z" fill="#8E9DB2"/>
<path d="M239.878 68.7864L238.791 74.9223H239.878L240.965 68.7864H239.878Z" fill="#8E9DB2"/>
<path d="M243.187 68.7864L242.1 74.9223H243.187L244.28 68.7864H243.187Z" fill="#8E9DB2"/>
<path d="M246.499 68.7864L245.412 74.9223H246.499L247.586 68.7864H246.499Z" fill="#8E9DB2"/>
<path d="M249.812 68.7864L248.725 74.9223H249.812L250.899 68.7864H249.812Z" fill="#8E9DB2"/>
</g>
<g opacity="0.55">
<path d="M94.4606 116.194C94.7359 116.147 94.989 116.013 95.1834 115.812C95.6113 115.234 94.9001 114.585 94.4374 114.284C93.8592 113.908 93.0265 113.781 92.7373 113.046C92.4482 112.31 92.9744 111.309 93.651 110.863C94.2456 110.52 94.8783 110.248 95.5361 110.053C96.287 109.809 96.9385 109.327 97.3924 108.681C97.9186 107.842 97.8145 106.765 97.8781 105.821C98.1499 102.128 101.926 100.293 105.101 100.218C106.691 100.183 109.114 100.751 110.172 101.989C110.537 102.4 110.788 102.899 110.901 103.437C110.961 103.837 110.929 104.246 110.805 104.631C110.682 105.017 110.471 105.369 110.189 105.659C109.587 106.209 108.956 106.727 108.299 107.211C107.686 107.789 108.125 108.403 107.98 109.098C107.836 109.792 107.31 110.198 106.645 110.568C105.234 111.355 103.574 111.552 102.019 111.98C101.535 112.081 101.077 112.278 100.671 112.559C100.222 113.017 99.8328 113.53 99.5146 114.087C98.81 115.039 97.7812 115.698 96.6233 115.94" fill="url(#paint0_linear_2511_2681)"/>
</g>
<path d="M103.302 125.497H100.289V124.055H103.302C103.532 124.059 103.761 124.017 103.975 123.931C104.188 123.846 104.383 123.719 104.547 123.557C104.711 123.395 104.842 123.203 104.931 122.99C105.02 122.777 105.066 122.549 105.066 122.319V119.835C105.066 119.605 105.02 119.377 104.931 119.164C104.842 118.951 104.711 118.759 104.547 118.597C104.383 118.435 104.188 118.308 103.975 118.223C103.761 118.137 103.532 118.095 103.302 118.099H100.289V116.657H103.302C104.149 116.659 104.962 116.997 105.561 117.597C106.161 118.197 106.498 119.01 106.5 119.859V122.342C106.486 123.182 106.143 123.984 105.545 124.574C104.947 125.164 104.142 125.495 103.302 125.497Z" fill="#E8EAEF"/>
<path d="M90.3826 114.574H102.526V125.74C102.526 126.679 102.153 127.58 101.49 128.245C100.826 128.909 99.9258 129.282 98.9872 129.282H93.9042C92.9656 129.282 92.0655 128.909 91.4018 128.245C90.7381 127.58 90.3652 126.679 90.3652 125.74V114.574H90.3826Z" fill="#E8EAEF"/>
<path d="M88.418 127.227C88.418 127.227 88.5394 130.093 92.9863 130.093H99.9833C104.43 130.093 104.546 127.227 104.546 127.227H88.418Z" fill="#C6D2E0"/>
<path d="M186.168 128.952H121.818V130.099H186.168V128.952Z" fill="#475577"/>
<path d="M128.624 128.026H124.016V128.947H128.624V128.026Z" fill="#475577"/>
<path d="M135.605 128.026H130.996V128.947H135.605V128.026Z" fill="#475577"/>
<path d="M142.583 128.026H137.975V128.947H142.583V128.026Z" fill="#475577"/>
<path d="M149.562 128.026H144.953V128.947H149.562V128.026Z" fill="#475577"/>
<path d="M156.548 128.026H151.939V128.947H156.548V128.026Z" fill="#475577"/>
<path d="M163.529 128.026H158.92V128.947H163.529V128.026Z" fill="#475577"/>
<path d="M170.507 128.026H165.898V128.947H170.507V128.026Z" fill="#475577"/>
<path d="M177.488 128.026H172.879V128.947H177.488V128.026Z" fill="#475577"/>
<path d="M184.468 128.026H179.859V128.947H184.468V128.026Z" fill="#475577"/>
<path d="M187.006 128.952H122.656V130.099H187.006V128.952Z" fill="#C0CCD8"/>
<path d="M129.468 128.026H124.859V128.947H129.468V128.026Z" fill="#C0CCD8"/>
<path d="M136.449 128.026H131.84V128.947H136.449V128.026Z" fill="#C0CCD8"/>
<path d="M143.429 128.026H138.82V128.947H143.429V128.026Z" fill="#C0CCD8"/>
<path d="M150.408 128.026H145.799V128.947H150.408V128.026Z" fill="#C0CCD8"/>
<path d="M157.388 128.026H152.779V128.947H157.388V128.026Z" fill="#C0CCD8"/>
<path d="M164.367 128.026H159.758V128.947H164.367V128.026Z" fill="#C0CCD8"/>
<path d="M171.347 128.026H166.738V128.947H171.347V128.026Z" fill="#C0CCD8"/>
<path d="M178.331 128.026H173.723V128.947H178.331V128.026Z" fill="#C0CCD8"/>
<path d="M185.312 128.026H180.703V128.947H185.312V128.026Z" fill="#C0CCD8"/>
<path d="M31.377 224.789L257.101 224.568" stroke="#475577" stroke-width="2" stroke-miterlimit="10"/>
<path d="M112.404 214.994L110.684 221.608C110.586 221.984 110.575 222.377 110.652 222.757C110.73 223.138 110.893 223.495 111.13 223.802C111.367 224.11 111.671 224.358 112.019 224.529C112.367 224.7 112.75 224.789 113.138 224.789H133.179C133.758 224.789 134.313 224.559 134.722 224.149C135.131 223.74 135.361 223.184 135.361 222.605C135.36 222.142 135.212 221.69 134.939 221.316C134.666 220.941 134.281 220.663 133.84 220.521L120.144 214.994" fill="#475577"/>
<path d="M158.041 214.994L156.321 221.608C156.223 221.984 156.212 222.377 156.289 222.757C156.366 223.138 156.53 223.495 156.767 223.802C157.004 224.11 157.308 224.358 157.656 224.529C158.004 224.7 158.387 224.789 158.774 224.789H178.816C179.395 224.789 179.949 224.559 180.359 224.149C180.768 223.74 180.998 223.184 180.998 222.605C180.997 222.142 180.849 221.69 180.576 221.316C180.303 220.941 179.918 220.663 179.477 220.521L165.781 214.994" fill="#475577"/>
<defs>
<linearGradient id="paint0_linear_2511_2681" x1="101.793" y1="116.194" x2="101.793" y2="100.218" gradientUnits="userSpaceOnUse">
<stop stop-color="white" stop-opacity="0.1"/>
<stop offset="1" stop-color="white" stop-opacity="0.4"/>
</linearGradient>
</defs>
</svg>
